<svg xmlns="http://www.w3.org/2000/svg" width="427.58416748046875" height="394.3896484375" viewBox="-699.14453125 -252.9789276123047 427.58416748046875 394.3896484375"><title>Neo4j Graph Visualization</title><desc>Created using Neo4j (http://www.neo4j.com/)</desc><g class="layer relationships"><g class="relationship" transform="translate(-489.84394090830557 -59.63158403445455) rotate(448.9698484514154)"><path class="b-outline" fill="#A5ABB6" stroke="none" d="M 21.40063509461097,12.933012701892217 L 21.90063509461097,12.06698729810778 A 125.95002095156441 125.95002095156441 0 0 0 67.9535058902984,27.799118030719995 L 67.81914990089685,28.790051160710064 A 126.95002095156441 126.95002095156441 0 0 1 21.40063509461097,12.933012701892217 Z M 96.97740758070164,29.362961895796516 L 96.88208060147312,28.36751588167462 A 125.95002095156441 125.95002095156441 0 0 0 143.5173883626475,14.456552006628645 L 142.12060234349775,11.80155882081671 L 149.94517013273364,11.639883492914555 L 145.3797697215138,17.996542921044554 L 143.98298370236407,15.341549735232622 A 126.95002095156441 126.95002095156441 0 0 1 96.97740758070164,29.362961895796516"/><text text-anchor="middle" pointer-events="none" font-size="8px" fill="#000000" x="82.39159472443855" y="32.416689142132284" font-family="Helvetica Neue, Helvetica, Arial, sans-serif">ROAD</text></g><g class="relationship" transform="translate(-489.84394090830557 -59.63158403445455) rotate(511.23433543321784)"><path class="b-outline" fill="#A5ABB6" stroke="none" d="M 21.40063509461097,12.933012701892217 L 21.90063509461097,12.06698729810778 A 159.94166830035323 159.94166830035323 0 0 0 84.74957949661461,32.576010623484436 L 84.64252865782993,33.57026417158748 A 160.94166830035323 160.94166830035323 0 0 1 21.40063509461097,12.933012701892217 Z M 113.80250540405414,34.0522586477487 L 113.7283727304882,33.05501026007893 A 159.94166830035323 159.94166830035323 0 0 0 177.22079862200488,14.634323394024156 L 175.80748343945245,11.988092074814357 L 183.63089089725312,11.77762652127015 L 179.1052188654081,18.16263181963722 L 177.69190368285567,15.516400500427421 A 160.94166830035323 160.94166830035323 0 0 1 113.80250540405414,34.0522586477487"/><text text-anchor="middle" pointer-events="none" font-size="8px" fill="#000000" x="99.21984038905225" y="36.973194417460846" transform="rotate(180 99.21984038905225 33.973194417460846)" font-family="Helvetica Neue, Helvetica, Arial, sans-serif">ROAD</text></g><g class="relationship" transform="translate(-489.84394090830557 -59.63158403445455) rotate(511.23433543321784)"><path class="b-outline" fill="#A5ABB6" stroke="none" d="M 25 0.5 L 84.7847686536674 0.5 L 84.7847686536674 -0.5 L 25 -0.5 Z M 113.8980499036674 0.5 L 173.6828185573348 0.5 L 173.6828185573348 3.5 L 180.6828185573348 0 L 173.6828185573348 -3.5 L 173.6828185573348 -0.5 L 113.8980499036674 -0.5 Z"/><text text-anchor="middle" pointer-events="none" font-size="8px" fill="#000000" x="99.3414092786674" y="3" transform="rotate(180 99.3414092786674 0)" font-family="Helvetica Neue, Helvetica, Arial, sans-serif">ROAD</text></g><g class="relationship" transform="translate(-489.84394090830557 -59.63158403445455) rotate(310.0468851115562)"><path class="b-outline" fill="#A5ABB6" stroke="none" d="M 21.40063509461097,-12.933012701892217 L 21.90063509461097,-12.06698729810778 A 169.02791870165382 169.02791870165382 0 0 1 89.25079971758969,-33.83873500240435 L 89.1492555770732,-34.83356603706639 A 170.02791870165382 170.02791870165382 0 0 0 21.40063509461097,-12.933012701892217 Z M 118.30887039184175,-35.29589313657206 L 118.23891555126481,-34.298342977291895 A 169.02791870165382 169.02791870165382 0 0 1 186.24543808461604,-14.672682077269288 L 184.82855658505585,-12.028358569034316 L 192.651673187091,-11.807345829668048 L 188.13461341736294,-18.19844675491592 L 186.71773191780275,-15.554123246680946 A 170.02791870165382 170.02791870165382 0 0 0 118.30887039184175,-35.29589313657206"/><text text-anchor="middle" pointer-events="none" font-size="8px" fill="#000000" x="103.72705889519194" y="-32.19113029121226" font-family="Helvetica Neue, Helvetica, Arial, sans-serif">ROAD</text></g><g class="relationship" transform="translate(-489.84394090830557 -59.63158403445455) rotate(230.7879902781234)"><path class="b-outline" fill="#A5ABB6" stroke="none" d="M 25 0.5 L 86.55302930772558 0.5 L 86.55302930772558 -0.5 L 25 -0.5 Z M 115.66631055772558 0.5 L 177.21933986545116 0.5 L 177.21933986545116 3.5 L 184.21933986545116 0 L 177.21933986545116 -3.5 L 177.21933986545116 -0.5 L 115.66631055772558 -0.5 Z"/><text text-anchor="middle" pointer-events="none" font-size="8px" fill="#000000" x="101.10966993272558" y="3" transform="rotate(180 101.10966993272558 0)" font-family="Helvetica Neue, Helvetica, Arial, sans-serif">ROAD</text></g><g class="relationship" transform="translate(-622.1106761274368 -221.7372376317532) rotate(359.5250132414426)"><path class="b-outline" fill="#A5ABB6" stroke="none" d="M 25 0.5 L 117.14793628776738 0.5 L 117.14793628776738 -0.5 L 25 -0.5 Z M 146.26121753776738 0.5 L 238.40915382553476 0.5 L 238.40915382553476 3.5 L 245.40915382553476 0 L 238.40915382553476 -3.5 L 238.40915382553476 -0.5 L 146.26121753776738 -0.5 Z"/><text text-anchor="middle" pointer-events="none" font-size="8px" fill="#000000" x="131.70457691276738" y="3" font-family="Helvetica Neue, Helvetica, Arial, sans-serif">ROAD</text></g><g class="relationship" transform="translate(-351.71081424725315 -223.97892624065827) rotate(490.0468851115562)"><path class="b-outline" fill="#A5ABB6" stroke="none" d="M 25 0.5 L 89.28721058619116 0.5 L 89.28721058619116 -0.5 L 25 -0.5 Z M 118.40049183619116 0.5 L 182.68770242238233 0.5 L 182.68770242238233 3.5 L 189.68770242238233 0 L 182.68770242238233 -3.5 L 182.68770242238233 -0.5 L 118.40049183619116 -0.5 Z"/><text text-anchor="middle" pointer-events="none" font-size="8px" fill="#000000" x="103.84385121119116" y="3" transform="rotate(180 103.84385121119116 0)" font-family="Helvetica Neue, Helvetica, Arial, sans-serif">ROAD</text></g><g class="relationship" transform="translate(-351.71081424725315 -223.97892624065827) rotate(490.0468851115562)"><path class="b-outline" fill="#A5ABB6" stroke="none" d="M 21.40063509461097,-12.933012701892217 L 21.90063509461097,-12.06698729810778 A 169.02791870165382 169.02791870165382 0 0 1 89.25079971758969,-33.83873500240435 L 89.1492555770732,-34.83356603706639 A 170.02791870165382 170.02791870165382 0 0 0 21.40063509461097,-12.933012701892217 Z M 118.30887039184175,-35.29589313657206 L 118.23891555126481,-34.298342977291895 A 169.02791870165382 169.02791870165382 0 0 1 186.24543808461604,-14.672682077269288 L 184.82855658505585,-12.028358569034316 L 192.651673187091,-11.807345829668048 L 188.13461341736294,-18.19844675491592 L 186.71773191780275,-15.554123246680946 A 170.02791870165382 170.02791870165382 0 0 0 118.30887039184175,-35.29589313657206"/><text text-anchor="middle" pointer-events="none" font-size="8px" fill="#000000" x="103.72705889519194" y="-32.19113029121226" transform="rotate(180 103.72705889519194 -35.19113029121226)" font-family="Helvetica Neue, Helvetica, Arial, sans-serif">ROAD</text></g><g class="relationship" transform="translate(-670.1445167895106 39.348839214768546) rotate(381.7217034837621)"><path class="b-outline" fill="#A5ABB6" stroke="none" d="M 25 0.5 L 80.6493019680809 0.5 L 80.6493019680809 -0.5 L 25 -0.5 Z M 109.7625832180809 0.5 L 165.4118851861618 0.5 L 165.4118851861618 3.5 L 172.4118851861618 0 L 165.4118851861618 -3.5 L 165.4118851861618 -0.5 L 109.7625832180809 -0.5 Z"/><text text-anchor="middle" pointer-events="none" font-size="8px" fill="#000000" x="95.2059425930809" y="3" font-family="Helvetica Neue, Helvetica, Arial, sans-serif">ROAD</text></g><g class="relationship" transform="translate(-670.1445167895106 39.348839214768546) rotate(331.23433543321784)"><path class="b-outline" fill="#A5ABB6" stroke="none" d="M 21.40063509461097,12.933012701892217 L 21.90063509461097,12.06698729810778 A 159.94166830035323 159.94166830035323 0 0 0 84.74957949661461,32.576010623484436 L 84.64252865782993,33.57026417158748 A 160.94166830035323 160.94166830035323 0 0 1 21.40063509461097,12.933012701892217 Z M 113.80250540405414,34.0522586477487 L 113.7283727304882,33.05501026007893 A 159.94166830035323 159.94166830035323 0 0 0 177.22079862200488,14.634323394024156 L 175.80748343945245,11.988092074814357 L 183.63089089725312,11.77762652127015 L 179.1052188654081,18.16263181963722 L 177.69190368285567,15.516400500427421 A 160.94166830035323 160.94166830035323 0 0 1 113.80250540405414,34.0522586477487"/><text text-anchor="middle" pointer-events="none" font-size="8px" fill="#000000" x="99.21984038905225" y="36.973194417460846" font-family="Helvetica Neue, Helvetica, Arial, sans-serif">ROAD</text></g><g class="relationship" transform="translate(-486.7503667359146 112.41071804958534) rotate(340.59336923918625)"><path class="b-outline" fill="#A5ABB6" stroke="none" d="M 24.018736134675446,-6.953439040707552 L 24.277555179777966,-5.987513214418485 A 283.6527112207099 283.6527112207099 0 0 1 80.65451130905035,-15.140590811899301 L 80.59444571808072,-16.138785244252745 A 284.6527112207099 284.6527112207099 0 0 0 24.018736134675446,-6.953439040707552 Z M 109.74505295623247,-16.39746103418412 L 109.70271092525064,-15.398357860126339 A 283.6527112207099 283.6527112207099 0 0 1 166.23322090637524,-7.247195171197835 L 165.50831041735424,-4.336094901040975 L 173.14660661824473,-6.040920741841653 L 167.1997682250699,-11.128662198073648 L 166.4748577360489,-8.217561927916789 A 284.6527112207099 284.6527112207099 0 0 0 109.74505295623247,-16.39746103418412"/><text text-anchor="middle" pointer-events="none" font-size="8px" fill="#000000" x="95.17087244712661" y="-13.141557999009706" font-family="Helvetica Neue, Helvetica, Arial, sans-serif">ROAD</text></g><g class="relationship" transform="translate(-486.7503667359146 112.41071804958534) rotate(268.9698484514154)"><path class="b-outline" fill="#A5ABB6" stroke="none" d="M 25 0.5 L 67.97841604891653 0.5 L 67.97841604891653 -0.5 L 25 -0.5 Z M 97.09169729891653 0.5 L 140.07011334783306 0.5 L 140.07011334783306 3.5 L 147.07011334783306 0 L 140.07011334783306 -3.5 L 140.07011334783306 -0.5 L 97.09169729891653 -0.5 Z"/><text text-anchor="middle" pointer-events="none" font-size="8px" fill="#000000" x="82.53505667391653" y="3" transform="rotate(180 82.53505667391653 0)" font-family="Helvetica Neue, Helvetica, Arial, sans-serif">ROAD</text></g><g class="relationship" transform="translate(-486.7503667359146 112.41071804958534) rotate(268.9698484514154)"><path class="b-outline" fill="#A5ABB6" stroke="none" d="M 21.40063509461097,12.933012701892217 L 21.90063509461097,12.06698729810778 A 125.95002095156441 125.95002095156441 0 0 0 67.9535058902984,27.799118030719995 L 67.81914990089685,28.790051160710064 A 126.95002095156441 126.95002095156441 0 0 1 21.40063509461097,12.933012701892217 Z M 96.97740758070164,29.362961895796516 L 96.88208060147312,28.36751588167462 A 125.95002095156441 125.95002095156441 0 0 0 143.5173883626475,14.456552006628645 L 142.12060234349775,11.80155882081671 L 149.94517013273364,11.639883492914555 L 145.3797697215138,17.996542921044554 L 143.98298370236407,15.341549735232622 A 126.95002095156441 126.95002095156441 0 0 1 96.97740758070164,29.362961895796516"/><text text-anchor="middle" pointer-events="none" font-size="8px" fill="#000000" x="82.39159472443855" y="32.416689142132284" transform="rotate(180 82.39159472443855 29.416689142132284)" font-family="Helvetica Neue, Helvetica, Arial, sans-serif">ROAD</text></g><g class="relationship" transform="translate(-300.5603560729895 46.81864425712334) rotate(520.5933692391862)"><path class="b-outline" fill="#A5ABB6" stroke="none" d="M 24.018736134675446,-6.953439040707552 L 24.277555179777966,-5.987513214418485 A 283.6527112207099 283.6527112207099 0 0 1 80.65451130905035,-15.140590811899301 L 80.59444571808072,-16.138785244252745 A 284.6527112207099 284.6527112207099 0 0 0 24.018736134675446,-6.953439040707552 Z M 109.74505295623247,-16.39746103418412 L 109.70271092525064,-15.398357860126339 A 283.6527112207099 283.6527112207099 0 0 1 166.23322090637524,-7.247195171197835 L 165.50831041735424,-4.336094901040975 L 173.14660661824473,-6.040920741841653 L 167.1997682250699,-11.128662198073648 L 166.4748577360489,-8.217561927916789 A 284.6527112207099 284.6527112207099 0 0 0 109.74505295623247,-16.39746103418412"/><text text-anchor="middle" pointer-events="none" font-size="8px" fill="#000000" x="95.17087244712661" y="-13.141557999009706" transform="rotate(180 95.17087244712661 -16.141557999009706)" font-family="Helvetica Neue, Helvetica, Arial, sans-serif">ROAD</text></g><g class="relationship" transform="translate(-491.89940393423495 -178.63431664450604) rotate(342.07597337477796)"><path class="b-outline" fill="#A5ABB6" stroke="none" d="M 25 0.5 L 46.64053123979269 0.5 L 46.64053123979269 -0.5 L 25 -0.5 Z M 93.6991249897927 0.5 L 115.33965622958539 0.5 L 115.33965622958539 3.5 L 122.33965622958539 0 L 115.33965622958539 -3.5 L 115.33965622958539 -0.5 L 93.6991249897927 -0.5 Z"/><text text-anchor="middle" pointer-events="none" font-size="8px" fill="#000000" x="70.1698281147927" y="3" font-family="Helvetica Neue, Helvetica, Arial, sans-serif">STOPS_AT</text></g><g class="relationship" transform="translate(-491.89940393423495 -178.63431664450604) rotate(198.3157292806804)"><path class="b-outline" fill="#A5ABB6" stroke="none" d="M 25 0.5 L 41.55065136755297 0.5 L 41.55065136755297 -0.5 L 25 -0.5 Z M 88.60924511755297 0.5 L 105.15989648510595 0.5 L 105.15989648510595 3.5 L 112.15989648510595 0 L 105.15989648510595 -3.5 L 105.15989648510595 -0.5 L 88.60924511755297 -0.5 Z"/><text text-anchor="middle" pointer-events="none" font-size="8px" fill="#000000" x="65.07994824255297" y="3" transform="rotate(180 65.07994824255297 0)" font-family="Helvetica Neue, Helvetica, Arial, sans-serif">STOPS_AT</text></g><g class="relationship" transform="translate(-491.89940393423495 -178.63431664450604) rotate(449.0104626655502)"><path class="b-outline" fill="#A5ABB6" stroke="none" d="M 25 0.5 L 32.480944464013184 0.5 L 32.480944464013184 -0.5 L 25 -0.5 Z M 79.53953821401319 0.5 L 87.02048267802637 0.5 L 87.02048267802637 3.5 L 94.02048267802637 0 L 87.02048267802637 -3.5 L 87.02048267802637 -0.5 L 79.53953821401319 -0.5 Z"/><text text-anchor="middle" pointer-events="none" font-size="8px" fill="#000000" x="56.010241339013184" y="3" font-family="Helvetica Neue, Helvetica, Arial, sans-serif">STOPS_AT</text></g><g class="relationship" transform="translate(-620.7765132058098 -112.12763817371821) rotate(337.4272210570665)"><path class="b-outline" fill="#A5ABB6" stroke="none" d="M 25 0.5 L 118.66478416322391 0.5 L 118.66478416322391 -0.5 L 25 -0.5 Z M 165.7233779132239 0.5 L 259.3881620764478 0.5 L 259.3881620764478 3.5 L 266.3881620764478 0 L 259.3881620764478 -3.5 L 259.3881620764478 -0.5 L 165.7233779132239 -0.5 Z"/><text text-anchor="middle" pointer-events="none" font-size="8px" fill="#000000" x="142.1940810382239" y="3" font-family="Helvetica Neue, Helvetica, Arial, sans-serif">STOPS_AT</text></g><g class="relationship" transform="translate(-620.7765132058098 -112.12763817371821) rotate(381.84780439347816)"><path class="b-outline" fill="#A5ABB6" stroke="none" d="M 25 0.5 L 43.50291950275478 0.5 L 43.50291950275478 -0.5 L 25 -0.5 Z M 90.56151325275478 0.5 L 109.06443275550956 0.5 L 109.06443275550956 3.5 L 116.06443275550956 0 L 109.06443275550956 -3.5 L 109.06443275550956 -0.5 L 90.56151325275478 -0.5 Z"/><text text-anchor="middle" pointer-events="none" font-size="8px" fill="#000000" x="67.03221637775478" y="3" font-family="Helvetica Neue, Helvetica, Arial, sans-serif">STOPS_AT</text></g><g class="relationship" transform="translate(-620.7765132058098 -112.12763817371821) rotate(468.0514113036789)"><path class="b-outline" fill="#A5ABB6" stroke="none" d="M 25 0.5 L 52.62985667916638 0.5 L 52.62985667916638 -0.5 L 25 -0.5 Z M 99.68845042916638 0.5 L 127.31830710833276 0.5 L 127.31830710833276 3.5 L 134.31830710833276 0 L 127.31830710833276 -3.5 L 127.31830710833276 -0.5 L 99.68845042916638 -0.5 Z"/><text text-anchor="middle" pointer-events="none" font-size="8px" fill="#000000" x="76.15915355416638" y="3" transform="rotate(180 76.15915355416638 0)" font-family="Helvetica Neue, Helvetica, Arial, sans-serif">STOPS_AT</text></g><g class="relationship" transform="translate(-557.7564099812158 1.7011895234129497) rotate(317.91433249236815)"><path class="b-outline" fill="#A5ABB6" stroke="none" d="M 25 0.5 L 27.10192536196277 0.5 L 27.10192536196277 -0.5 L 25 -0.5 Z M 57.40661286196277 0.5 L 59.50853822392554 0.5 L 59.50853822392554 3.5 L 66.50853822392554 0 L 59.50853822392554 -3.5 L 59.50853822392554 -0.5 L 57.40661286196277 -0.5 Z"/><text text-anchor="middle" pointer-events="none" font-size="8px" fill="#000000" x="42.25426911196277" y="3" font-family="Helvetica Neue, Helvetica, Arial, sans-serif">STO…</text></g><g class="relationship" transform="translate(-557.7564099812158 1.7011895234129497) rotate(417.325005315162)"><path class="b-outline" fill="#A5ABB6" stroke="none" d="M 25 0.5 L 38.7325041264951 0.5 L 38.7325041264951 -0.5 L 25 -0.5 Z M 85.7910978764951 0.5 L 99.5236020029902 0.5 L 99.5236020029902 3.5 L 106.5236020029902 0 L 99.5236020029902 -3.5 L 99.5236020029902 -0.5 L 85.7910978764951 -0.5 Z"/><text text-anchor="middle" pointer-events="none" font-size="8px" fill="#000000" x="62.2618010014951" y="3" font-family="Helvetica Neue, Helvetica, Arial, sans-serif">STOPS_AT</text></g><g class="relationship" transform="translate(-557.7564099812158 1.7011895234129497) rotate(521.4802350574294)"><path class="b-outline" fill="#A5ABB6" stroke="none" d="M 25 0.5 L 32.23374405110271 0.5 L 32.23374405110271 -0.5 L 25 -0.5 Z M 79.29233780110272 0.5 L 86.52608185220542 0.5 L 86.52608185220542 3.5 L 93.52608185220542 0 L 86.52608185220542 -3.5 L 86.52608185220542 -0.5 L 79.29233780110272 -0.5 Z"/><text text-anchor="middle" pointer-events="none" font-size="8px" fill="#000000" x="55.76304092610271" y="3" transform="rotate(180 55.76304092610271 0)" font-family="Helvetica Neue, Helvetica, Arial, sans-serif">STOPS_AT</text></g><g class="relationship" transform="translate(-397.6414041050057 -29.745910694100985) rotate(197.95910147892505)"><path class="b-outline" fill="#A5ABB6" stroke="none" d="M 25 0.5 L 27.142202044672025 0.5 L 27.142202044672025 -0.5 L 25 -0.5 Z M 62.782827044672025 0.5 L 64.92502908934405 0.5 L 64.92502908934405 3.5 L 71.92502908934405 0 L 64.92502908934405 -3.5 L 64.92502908934405 -0.5 L 62.782827044672025 -0.5 Z"/><text text-anchor="middle" pointer-events="none" font-size="8px" fill="#000000" x="44.962514544672025" y="3" transform="rotate(180 44.962514544672025 0)" font-family="Helvetica Neue, Helvetica, Arial, sans-serif">STOP…</text></g><g class="relationship" transform="translate(-397.6414041050057 -29.745910694100985) rotate(398.2616555807443)"><path class="b-outline" fill="#A5ABB6" stroke="none" d="M 25 0.5 L 34.79072609869696 0.5 L 34.79072609869696 -0.5 L 25 -0.5 Z M 81.84931984869695 0.5 L 91.64004594739392 0.5 L 91.64004594739392 3.5 L 98.64004594739392 0 L 91.64004594739392 -3.5 L 91.64004594739392 -0.5 L 81.84931984869695 -0.5 Z"/><text text-anchor="middle" pointer-events="none" font-size="8px" fill="#000000" x="58.32002297369696" y="3" font-family="Helvetica Neue, Helvetica, Arial, sans-serif">STOPS_AT</text></g><g class="relationship" transform="translate(-397.6414041050057 -29.745910694100985) rotate(482.0809869570286)"><path class="b-outline" fill="#A5ABB6" stroke="none" d="M 25 0.5 L 56.858894065273276 0.5 L 56.858894065273276 -0.5 L 25 -0.5 Z M 103.91748781527328 0.5 L 135.77638188054655 0.5 L 135.77638188054655 3.5 L 142.77638188054655 0 L 135.77638188054655 -3.5 L 135.77638188054655 -0.5 L 103.91748781527328 -0.5 Z"/><text text-anchor="middle" pointer-events="none" font-size="8px" fill="#000000" x="80.38819094027328" y="3" transform="rotate(180 80.38819094027328 0)" font-family="Helvetica Neue, Helvetica, Arial, sans-serif">STOPS_AT</text></g></g><g class="layer nodes"><g class="node" aria-label="graph-node2" transform="translate(-489.84394090830557,-59.63158403445455)"><circle class="b-outline" cx="0" cy="0" r="25" fill="#4C8EDA" stroke="#2870c2" stroke-width="2px"/><text class="caption" text-anchor="middle" pointer-events="none" x="0" y="5" font-size="10px" fill="#FFFFFF" font-family="Helvetica Neue, Helvetica, Arial, sans-serif"> A</text></g><g class="node" aria-label="graph-node8" transform="translate(-622.1106761274368,-221.7372376317532)"><circle class="b-outline" cx="0" cy="0" r="25" fill="#4C8EDA" stroke="#2870c2" stroke-width="2px"/><text class="caption" text-anchor="middle" pointer-events="none" x="0" y="5" font-size="10px" fill="#FFFFFF" font-family="Helvetica Neue, Helvetica, Arial, sans-serif"> B</text></g><g class="node" aria-label="graph-node9" transform="translate(-351.71081424725315,-223.97892624065827)"><circle class="b-outline" cx="0" cy="0" r="25" fill="#4C8EDA" stroke="#2870c2" stroke-width="2px"/><text class="caption" text-anchor="middle" pointer-events="none" x="0" y="5" font-size="10px" fill="#FFFFFF" font-family="Helvetica Neue, Helvetica, Arial, sans-serif"> C</text></g><g class="node" aria-label="graph-node10" transform="translate(-670.1445167895106,39.348839214768546)"><circle class="b-outline" cx="0" cy="0" r="25" fill="#4C8EDA" stroke="#2870c2" stroke-width="2px"/><text class="caption" text-anchor="middle" pointer-events="none" x="0" y="5" font-size="10px" fill="#FFFFFF" font-family="Helvetica Neue, Helvetica, Arial, sans-serif"> D</text></g><g class="node" aria-label="graph-node14" transform="translate(-486.7503667359146,112.41071804958534)"><circle class="b-outline" cx="0" cy="0" r="25" fill="#4C8EDA" stroke="#2870c2" stroke-width="2px"/><text class="caption" text-anchor="middle" pointer-events="none" x="0" y="5" font-size="10px" fill="#FFFFFF" font-family="Helvetica Neue, Helvetica, Arial, sans-serif"> E</text></g><g class="node" aria-label="graph-node15" transform="translate(-300.5603560729895,46.81864425712334)"><circle class="b-outline" cx="0" cy="0" r="25" fill="#4C8EDA" stroke="#2870c2" stroke-width="2px"/><text class="caption" text-anchor="middle" pointer-events="none" x="0" y="5" font-size="10px" fill="#FFFFFF" font-family="Helvetica Neue, Helvetica, Arial, sans-serif"> F</text></g><g class="node" aria-label="graph-node16" transform="translate(-491.89940393423495,-178.63431664450604)"><circle class="b-outline" cx="0" cy="0" r="25" fill="#FFC454" stroke="#d7a013" stroke-width="2px"/><text class="caption" text-anchor="middle" pointer-events="none" x="0" y="5" font-size="10px" fill="#2A2C34" font-family="Helvetica Neue, Helvetica, Arial, sans-serif"> Bus-A</text></g><g class="node" aria-label="graph-node17" transform="translate(-620.7765132058098,-112.12763817371821)"><circle class="b-outline" cx="0" cy="0" r="25" fill="#FFC454" stroke="#d7a013" stroke-width="2px"/><text class="caption" text-anchor="middle" pointer-events="none" x="0" y="5" font-size="10px" fill="#2A2C34" font-family="Helvetica Neue, Helvetica, Arial, sans-serif"> Bus-B</text></g><g class="node" aria-label="graph-node18" transform="translate(-557.7564099812158,1.7011895234129497)"><circle class="b-outline" cx="0" cy="0" r="25" fill="#FFC454" stroke="#d7a013" stroke-width="2px"/><text class="caption" text-anchor="middle" pointer-events="none" x="0" y="5" font-size="10px" fill="#2A2C34" font-family="Helvetica Neue, Helvetica, Arial, sans-serif"> Bus-C</text></g><g class="node" aria-label="graph-node19" transform="translate(-397.6414041050057,-29.745910694100985)"><circle class="b-outline" cx="0" cy="0" r="25" fill="#FFC454" stroke="#d7a013" stroke-width="2px"/><text class="caption" text-anchor="middle" pointer-events="none" x="0" y="5" font-size="10px" fill="#2A2C34" font-family="Helvetica Neue, Helvetica, Arial, sans-serif"> Bus-D</text></g></g></svg>