<svg xmlns="http://www.w3.org/2000/svg" width="318.39300537109375" height="183.50054931640625" viewBox="-166.40293884277344 -110.41841888427734 318.39300537109375 183.50054931640625"><title>Neo4j Graph Visualization</title><desc>Created using Neo4j (http://www.neo4j.com/)</desc><g class="layer relationships"><g class="relationship" transform="translate(-7.18179931618851 -81.4184213999895) rotate(387.5096896645421)"><path class="b-outline" fill="#A5ABB6" stroke="none" d="M 25 0.5 L 46.353853990059605 0.5 L 46.353853990059605 -0.5 L 25 -0.5 Z M 93.4124477400596 0.5 L 114.76630173011921 0.5 L 114.76630173011921 3.5 L 121.76630173011921 0 L 114.76630173011921 -3.5 L 114.76630173011921 -0.5 L 93.4124477400596 -0.5 Z"/><text text-anchor="middle" pointer-events="none" font-size="8px" fill="#000000" x="69.8831508650596" y="3" font-family="Helvetica Neue, Helvetica, Arial, sans-serif">STOPS_AT</text></g><g class="relationship" transform="translate(-7.18179931618851 -81.4184213999895) rotate(450.41264386911524)"><path class="b-outline" fill="#A5ABB6" stroke="none" d="M 25 0.5 L 35.722601770687994 0.5 L 35.722601770687994 -0.5 L 25 -0.5 Z M 82.78119552068799 0.5 L 93.50379729137599 0.5 L 93.50379729137599 3.5 L 100.50379729137599 0 L 93.50379729137599 -3.5 L 93.50379729137599 -0.5 L 82.78119552068799 -0.5 Z"/><text text-anchor="middle" pointer-events="none" font-size="8px" fill="#000000" x="59.251898645687994" y="3" transform="rotate(180 59.251898645687994 0)" font-family="Helvetica Neue, Helvetica, Arial, sans-serif">STOPS_AT</text></g><g class="relationship" transform="translate(-7.18179931618851 -81.4184213999895) rotate(513.2053542973705)"><path class="b-outline" fill="#A5ABB6" stroke="none" d="M 25 0.5 L 45.91326258074598 0.5 L 45.91326258074598 -0.5 L 25 -0.5 Z M 92.97185633074598 0.5 L 113.88511891149196 0.5 L 113.88511891149196 3.5 L 120.88511891149196 0 L 113.88511891149196 -3.5 L 113.88511891149196 -0.5 L 92.97185633074598 -0.5 Z"/><text text-anchor="middle" pointer-events="none" font-size="8px" fill="#000000" x="69.44255945574598" y="3" transform="rotate(180 69.44255945574598 0)" font-family="Helvetica Neue, Helvetica, Arial, sans-serif">STOPS_AT</text></g><g class="relationship" transform="translate(-8.085669116805743 44.082121044807636) rotate(204.79394712089697)"><path class="b-outline" fill="#A5ABB6" stroke="none" d="M 21.40063509461097,12.933012701892217 L 21.90063509461097,12.06698729810778 A 95.84555829584222 95.84555829584222 0 0 0 53.16887296697732,23.449783843254124 L 52.99510861553864,24.434571104630464 A 96.84555829584222 96.84555829584222 0 0 1 21.40063509461097,12.933012701892217 Z M 82.14017301274043,25.12144541529956 L 82.01299362540516,24.129565682954436 A 95.84555829584222 95.84555829584222 0 0 0 113.78274525338455,14.23241264141868 L 112.40680258710579,11.566557848089962 L 120.232396882198,11.46618888565636 L 115.61733547508955,17.786885699190304 L 114.24139280881079,15.121030905861584 A 96.84555829584222 96.84555829584222 0 0 1 82.14017301274043,25.12144541529956"/><text text-anchor="middle" pointer-events="none" font-size="8px" fill="#000000" x="67.55342720563908" y="28.381112100984893" transform="rotate(180 67.55342720563908 25.381112100984893)" font-family="Helvetica Neue, Helvetica, Arial, sans-serif">ROAD</text></g><g class="relationship" transform="translate(-8.085669116805743 44.082121044807636) rotate(204.79394712089697)"><path class="b-outline" fill="#A5ABB6" stroke="none" d="M 25 0.5 L 53.16728612163536 0.5 L 53.16728612163536 -0.5 L 25 -0.5 Z M 82.28056737163536 0.5 L 110.44785349327071 0.5 L 110.44785349327071 3.5 L 117.44785349327071 0 L 110.44785349327071 -3.5 L 110.44785349327071 -0.5 L 82.28056737163536 -0.5 Z"/><text text-anchor="middle" pointer-events="none" font-size="8px" fill="#000000" x="67.72392674663536" y="3" transform="rotate(180 67.72392674663536 0)" font-family="Helvetica Neue, Helvetica, Arial, sans-serif">ROAD</text></g><g class="relationship" transform="translate(-8.085669116805743 44.082121044807636) rotate(336.2372936255964)"><path class="b-outline" fill="#A5ABB6" stroke="none" d="M 21.40063509461097,-12.933012701892217 L 21.90063509461097,-12.06698729810778 A 96.630123497502 96.630123497502 0 0 1 53.55252953207284,-23.565405022379778 L 53.38008675017244,-24.550424558719257 A 97.630123497502 97.630123497502 0 0 0 21.40063509461097,-12.933012701892217 Z M 82.525805686591,-25.2337734749037 L 82.39971643870078,-24.24175457308455 A 96.630123497502 96.630123497502 0 0 1 114.55571742316164,-14.239373240150202 L 113.17912742281005,-11.57385265855042 L 121.00469711361973,-11.471583336263155 L 116.39117075696375,-17.79340068228325 L 115.01458075661216,-15.127880100683464 A 97.630123497502 97.630123497502 0 0 0 82.525805686591,-25.2337734749037"/><text text-anchor="middle" pointer-events="none" font-size="8px" fill="#000000" x="67.93901500733202" y="-22.486283264539196" font-family="Helvetica Neue, Helvetica, Arial, sans-serif">ROAD</text></g><g class="relationship" transform="translate(122.99003751983338 -13.62726992523961) rotate(516.2372936255964)"><path class="b-outline" fill="#A5ABB6" stroke="none" d="M 25 0.5 L 53.55204368847565 0.5 L 53.55204368847565 -0.5 L 25 -0.5 Z M 82.66532493847565 0.5 L 111.2173686269513 0.5 L 111.2173686269513 3.5 L 118.2173686269513 0 L 111.2173686269513 -3.5 L 111.2173686269513 -0.5 L 82.66532493847565 -0.5 Z"/><text text-anchor="middle" pointer-events="none" font-size="8px" fill="#000000" x="68.10868431347565" y="3" transform="rotate(180 68.10868431347565 0)" font-family="Helvetica Neue, Helvetica, Arial, sans-serif">ROAD</text></g><g class="relationship" transform="translate(122.99003751983338 -13.62726992523961) rotate(516.2372936255964)"><path class="b-outline" fill="#A5ABB6" stroke="none" d="M 21.40063509461097,-12.933012701892217 L 21.90063509461097,-12.06698729810778 A 96.630123497502 96.630123497502 0 0 1 53.55252953207284,-23.565405022379778 L 53.38008675017244,-24.550424558719257 A 97.630123497502 97.630123497502 0 0 0 21.40063509461097,-12.933012701892217 Z M 82.525805686591,-25.2337734749037 L 82.39971643870078,-24.24175457308455 A 96.630123497502 96.630123497502 0 0 1 114.55571742316164,-14.239373240150202 L 113.17912742281005,-11.57385265855042 L 121.00469711361973,-11.471583336263155 L 116.39117075696375,-17.79340068228325 L 115.01458075661216,-15.127880100683464 A 97.630123497502 97.630123497502 0 0 0 82.525805686591,-25.2337734749037"/><text text-anchor="middle" pointer-events="none" font-size="8px" fill="#000000" x="67.93901500733202" y="-22.486283264539196" transform="rotate(180 67.93901500733202 -25.486283264539196)" font-family="Helvetica Neue, Helvetica, Arial, sans-serif">ROAD</text></g><g class="relationship" transform="translate(-137.40293381642223 -15.654266655233648) rotate(384.793947120897)"><path class="b-outline" fill="#A5ABB6" stroke="none" d="M 21.40063509461097,12.933012701892217 L 21.90063509461097,12.06698729810778 A 95.84555829584222 95.84555829584222 0 0 0 53.16887296697732,23.449783843254124 L 52.99510861553864,24.434571104630464 A 96.84555829584222 96.84555829584222 0 0 1 21.40063509461097,12.933012701892217 Z M 82.14017301274043,25.12144541529956 L 82.01299362540516,24.129565682954436 A 95.84555829584222 95.84555829584222 0 0 0 113.78274525338455,14.23241264141868 L 112.40680258710579,11.566557848089962 L 120.232396882198,11.46618888565636 L 115.61733547508955,17.786885699190304 L 114.24139280881079,15.121030905861584 A 96.84555829584222 96.84555829584222 0 0 1 82.14017301274043,25.12144541529956"/><text text-anchor="middle" pointer-events="none" font-size="8px" fill="#000000" x="67.55342720563908" y="28.381112100984893" font-family="Helvetica Neue, Helvetica, Arial, sans-serif">ROAD</text></g></g><g class="layer nodes"><g class="node" aria-label="graph-node17" transform="translate(-7.18179931618851,-81.4184213999895)"><circle class="b-outline" cx="0" cy="0" r="25" fill="#FFC454" stroke="#d7a013" stroke-width="2px"/><text class="caption" text-anchor="middle" pointer-events="none" x="0" y="5" font-size="10px" fill="#2A2C34" font-family="Helvetica Neue, Helvetica, Arial, sans-serif"> Bus-B</text></g><g class="node" aria-label="graph-node9" transform="translate(122.99003751983338,-13.62726992523961)"><circle class="b-outline" cx="0" cy="0" r="25" fill="#4C8EDA" stroke="#2870c2" stroke-width="2px"/><text class="caption" text-anchor="middle" pointer-events="none" x="0" y="5" font-size="10px" fill="#FFFFFF" font-family="Helvetica Neue, Helvetica, Arial, sans-serif"> C</text></g><g class="node" aria-label="graph-node2" transform="translate(-8.085669116805743,44.082121044807636)"><circle class="b-outline" cx="0" cy="0" r="25" fill="#4C8EDA" stroke="#2870c2" stroke-width="2px"/><text class="caption" text-anchor="middle" pointer-events="none" x="0" y="5" font-size="10px" fill="#FFFFFF" font-family="Helvetica Neue, Helvetica, Arial, sans-serif"> A</text></g><g class="node" aria-label="graph-node10" transform="translate(-137.40293381642223,-15.654266655233648)"><circle class="b-outline" cx="0" cy="0" r="25" fill="#4C8EDA" stroke="#2870c2" stroke-width="2px"/><text class="caption" text-anchor="middle" pointer-events="none" x="0" y="5" font-size="10px" fill="#FFFFFF" font-family="Helvetica Neue, Helvetica, Arial, sans-serif"> D</text></g></g></svg>