<svg xmlns="http://www.w3.org/2000/svg" width="397.6132507324219" height="197.1625213623047" viewBox="-138.48361206054688 -91.67111206054688 397.6132507324219 197.1625213623047"><title>Neo4j Graph Visualization</title><desc>Created using Neo4j (http://www.neo4j.com/)</desc><g class="layer relationships"><g class="relationship" transform="translate(111.32895698157779 8.103065851470376) rotate(211.81005950180952)"><path class="b-outline" fill="#A5ABB6" stroke="none" d="M 25 0.5 L 40.10550567467095 0.5 L 40.10550567467095 -0.5 L 25 -0.5 Z M 87.16409942467095 0.5 L 102.2696050993419 0.5 L 102.2696050993419 3.5 L 109.2696050993419 0 L 102.2696050993419 -3.5 L 102.2696050993419 -0.5 L 87.16409942467095 -0.5 Z"/><text text-anchor="middle" pointer-events="none" font-size="8px" fill="#000000" x="63.63480254967095" y="3" transform="rotate(180 63.63480254967095 0)" font-family="Helvetica Neue, Helvetica, Arial, sans-serif">STOPS_AT</text></g><g class="relationship" transform="translate(111.32895698157779 8.103065851470376) rotate(508.48229416885033)"><path class="b-outline" fill="#A5ABB6" stroke="none" d="M 25 0.5 L 38.38129482238867 0.5 L 38.38129482238867 -0.5 L 25 -0.5 Z M 85.43988857238867 0.5 L 98.82118339477734 0.5 L 98.82118339477734 3.5 L 105.82118339477734 0 L 98.82118339477734 -3.5 L 98.82118339477734 -0.5 L 85.43988857238867 -0.5 Z"/><text text-anchor="middle" pointer-events="none" font-size="8px" fill="#000000" x="61.91059169738867" y="3" transform="rotate(180 61.91059169738867 0)" font-family="Helvetica Neue, Helvetica, Arial, sans-serif">STOPS_AT</text></g><g class="relationship" transform="translate(113.25724588154213 72.7581215282175) rotate(538.1152610785423)"><path class="b-outline" fill="#A5ABB6" stroke="none" d="M 25 0.5 L 29.72668536646936 0.5 L 29.72668536646936 -0.5 L 25 -0.5 Z M 76.78527911646935 0.5 L 81.51196448293872 0.5 L 81.51196448293872 3.5 L 88.51196448293872 0 L 81.51196448293872 -3.5 L 81.51196448293872 -0.5 L 76.78527911646935 -0.5 Z"/><text text-anchor="middle" pointer-events="none" font-size="8px" fill="#000000" x="53.25598224146936" y="3" transform="rotate(180 53.25598224146936 0)" font-family="Helvetica Neue, Helvetica, Arial, sans-serif">STOPS_AT</text></g><g class="relationship" transform="translate(113.25724588154213 72.7581215282175) rotate(359.4786003701081)"><path class="b-outline" fill="#A5ABB6" stroke="none" d="M 25 0.5 L 31.409315507871007 0.5 L 31.409315507871007 -0.5 L 25 -0.5 Z M 78.46790925787101 0.5 L 84.87722476574201 0.5 L 84.87722476574201 3.5 L 91.87722476574201 0 L 84.87722476574201 -3.5 L 84.87722476574201 -0.5 L 78.46790925787101 -0.5 Z"/><text text-anchor="middle" pointer-events="none" font-size="8px" fill="#000000" x="54.93861238287101" y="3" font-family="Helvetica Neue, Helvetica, Arial, sans-serif">STOPS_AT</text></g><g class="relationship" transform="translate(-109.48361039955694 10.15850144544794) rotate(325.6865071623857)"><path class="b-outline" fill="#A5ABB6" stroke="none" d="M 25 0.5 L 37.56796957870779 0.5 L 37.56796957870779 -0.5 L 25 -0.5 Z M 84.62656332870779 0.5 L 97.19453290741558 0.5 L 97.19453290741558 3.5 L 104.19453290741558 0 L 97.19453290741558 -3.5 L 97.19453290741558 -0.5 L 84.62656332870779 -0.5 Z"/><text text-anchor="middle" pointer-events="none" font-size="8px" fill="#000000" x="61.09726645370779" y="3" font-family="Helvetica Neue, Helvetica, Arial, sans-serif">STOPS_AT</text></g><g class="relationship" transform="translate(-109.48361039955694 10.15850144544794) rotate(391.2553368016302)"><path class="b-outline" fill="#A5ABB6" stroke="none" d="M 25 0.5 L 36.89336129351522 0.5 L 36.89336129351522 -0.5 L 25 -0.5 Z M 83.95195504351523 0.5 L 95.84531633703044 0.5 L 95.84531633703044 3.5 L 102.84531633703044 0 L 95.84531633703044 -3.5 L 95.84531633703044 -0.5 L 83.95195504351523 -0.5 Z"/><text text-anchor="middle" pointer-events="none" font-size="8px" fill="#000000" x="60.42265816851522" y="3" font-family="Helvetica Neue, Helvetica, Arial, sans-serif">STOPS_AT</text></g><g class="relationship" transform="translate(-0.19330994209528285 76.49141284871095) rotate(268.93786126339893)"><path class="b-outline" fill="#A5ABB6" stroke="none" d="M 21.40063509461097,-12.933012701892217 L 21.90063509461097,-12.06698729810778 A 92.51851414453064 92.51851414453064 0 0 1 51.54320377404875,-22.957674763572783 L 51.363599847780876,-23.941413768425775 A 93.51851414453064 93.51851414453064 0 0 0 21.40063509461097,-12.933012701892217 Z M 80.50559177797729,-24.643637109957353 L 80.37357835021879,-23.652389181893213 A 92.51851414453064 92.51851414453064 0 0 1 110.50629609160625,-14.202083742199948 L 109.13317404194025,-11.53477501677631 L 116.9588701258724,-11.442683747216574 L 112.3371254911609,-17.75849537609813 L 110.96400344149491,-15.091186650674492 A 93.51851414453064 93.51851414453064 0 0 0 80.50559177797729,-24.643637109957353"/><text text-anchor="middle" pointer-events="none" font-size="8px" fill="#000000" x="65.91911135893625" y="-21.935124175458583" transform="rotate(180 65.91911135893625 -24.935124175458583)" font-family="Helvetica Neue, Helvetica, Arial, sans-serif">ROAD</text></g><g class="relationship" transform="translate(-2.773375117308859 -62.671114914742674) rotate(448.93786126339893)"><path class="b-outline" fill="#A5ABB6" stroke="none" d="M 25 0.5 L 51.536580793868 0.5 L 51.536580793868 -0.5 L 25 -0.5 Z M 80.649862043868 0.5 L 107.186442837736 0.5 L 107.186442837736 3.5 L 114.186442837736 0 L 107.186442837736 -3.5 L 107.186442837736 -0.5 L 80.649862043868 -0.5 Z"/><text text-anchor="middle" pointer-events="none" font-size="8px" fill="#000000" x="66.093221418868" y="3" font-family="Helvetica Neue, Helvetica, Arial, sans-serif">ROAD</text></g><g class="relationship" transform="translate(-2.773375117308859 -62.671114914742674) rotate(448.93786126339893)"><path class="b-outline" fill="#A5ABB6" stroke="none" d="M 21.40063509461097,-12.933012701892217 L 21.90063509461097,-12.06698729810778 A 92.51851414453064 92.51851414453064 0 0 1 51.54320377404875,-22.957674763572783 L 51.363599847780876,-23.941413768425775 A 93.51851414453064 93.51851414453064 0 0 0 21.40063509461097,-12.933012701892217 Z M 80.50559177797729,-24.643637109957353 L 80.37357835021879,-23.652389181893213 A 92.51851414453064 92.51851414453064 0 0 1 110.50629609160625,-14.202083742199948 L 109.13317404194025,-11.53477501677631 L 116.9588701258724,-11.442683747216574 L 112.3371254911609,-17.75849537609813 L 110.96400344149491,-15.091186650674492 A 93.51851414453064 93.51851414453064 0 0 0 80.50559177797729,-24.643637109957353"/><text text-anchor="middle" pointer-events="none" font-size="8px" fill="#000000" x="65.91911135893625" y="-21.935124175458583" font-family="Helvetica Neue, Helvetica, Arial, sans-serif">ROAD</text></g></g><g class="layer nodes"><g class="node" aria-label="graph-node9" transform="translate(-2.773375117308859,-62.671114914742674)"><circle class="b-outline" cx="0" cy="0" r="25" fill="#4C8EDA" stroke="#2870c2" stroke-width="2px"/><text class="caption" text-anchor="middle" pointer-events="none" x="0" y="5" font-size="10px" fill="#FFFFFF" font-family="Helvetica Neue, Helvetica, Arial, sans-serif"> C</text></g><g class="node" aria-label="graph-node15" transform="translate(230.12963123001032,71.69453706944793)"><circle class="b-outline" cx="0" cy="0" r="25" fill="#4C8EDA" stroke="#2870c2" stroke-width="2px"/><text class="caption" text-anchor="middle" pointer-events="none" x="0" y="5" font-size="10px" fill="#FFFFFF" font-family="Helvetica Neue, Helvetica, Arial, sans-serif"> F</text></g><g class="node" aria-label="graph-node16" transform="translate(111.32895698157779,8.103065851470376)"><circle class="b-outline" cx="0" cy="0" r="25" fill="#FFC454" stroke="#d7a013" stroke-width="2px"/><text class="caption" text-anchor="middle" pointer-events="none" x="0" y="5" font-size="10px" fill="#2A2C34" font-family="Helvetica Neue, Helvetica, Arial, sans-serif"> Bus-A</text></g><g class="node" aria-label="graph-node2" transform="translate(-0.19330994209528285,76.49141284871095)"><circle class="b-outline" cx="0" cy="0" r="25" fill="#4C8EDA" stroke="#2870c2" stroke-width="2px"/><text class="caption" text-anchor="middle" pointer-events="none" x="0" y="5" font-size="10px" fill="#FFFFFF" font-family="Helvetica Neue, Helvetica, Arial, sans-serif"> A</text></g><g class="node" aria-label="graph-node19" transform="translate(113.25724588154213,72.7581215282175)"><circle class="b-outline" cx="0" cy="0" r="25" fill="#FFC454" stroke="#d7a013" stroke-width="2px"/><text class="caption" text-anchor="middle" pointer-events="none" x="0" y="5" font-size="10px" fill="#2A2C34" font-family="Helvetica Neue, Helvetica, Arial, sans-serif"> Bus-D</text></g><g class="node" aria-label="graph-node17" transform="translate(-109.48361039955694,10.15850144544794)"><circle class="b-outline" cx="0" cy="0" r="25" fill="#FFC454" stroke="#d7a013" stroke-width="2px"/><text class="caption" text-anchor="middle" pointer-events="none" x="0" y="5" font-size="10px" fill="#2A2C34" font-family="Helvetica Neue, Helvetica, Arial, sans-serif"> Bus-B</text></g></g></svg>