<svg xmlns="http://www.w3.org/2000/svg" width="273.56640625" height="225.2139129638672" viewBox="-237.80857849121094 -114.8987045288086 273.56640625 225.2139129638672"><title>Neo4j Graph Visualization</title><desc>Created using Neo4j (http://www.neo4j.com/)</desc><g class="layer relationships"><g class="relationship" transform="translate(-106.03174351903493 -85.89870189380525) rotate(395.69906735416123)"><path class="b-outline" fill="#A5ABB6" stroke="none" d="M 21.40063509461097,12.933012701892217 L 21.90063509461097,12.06698729810778 A 92.21337924536134 92.21337924536134 0 0 0 51.39421520193899,22.912389083145627 L 51.2140557754945,23.89602650672363 A 93.21337924536134 93.21337924536134 0 0 1 21.40063509461097,12.933012701892217 Z M 80.3557400578347,24.599690782299973 L 80.22326534829713,23.6085043965314 A 92.21337924536134 92.21337924536134 0 0 0 110.20592112912189,14.199234512270683 L 108.83306406356913,11.53178939051806 L 116.65876925747013,11.440475546273008 L 112.03639721652557,17.755828007940845 L 110.6635401509728,15.088382886188223 A 93.21337924536134 93.21337924536134 0 0 1 80.3557400578347,24.599690782299973"/><text text-anchor="middle" pointer-events="none" font-size="8px" fill="#000000" x="65.76929063950215" y="27.89422134809294" font-family="Helvetica Neue, Helvetica, Arial, sans-serif">ROAD</text></g><g class="relationship" transform="translate(6.757809188018896 -4.8539703345572605) rotate(501.1932895855608)"><path class="b-outline" fill="#A5ABB6" stroke="none" d="M 24.018736134675446,-6.953439040707552 L 24.277555179777966,-5.987513214418485 A 166.2180612936723 166.2180612936723 0 0 1 50.7251518371483,-10.822995464930614 L 50.62544664797413,-11.818012487524584 A 167.2180612936723 167.2180612936723 0 0 0 24.018736134675446,-6.953439040707552 Z M 79.78665330728558,-12.18424430561393 L 79.71196820372637,-11.187037137916889 A 166.2180612936723 166.2180612936723 0 0 1 106.27266050740936,-7.017279123950145 L 105.56922241311072,-4.100915832539158 L 113.19474786975142,-5.861984119155187 L 107.21057796647419,-10.905763512498126 L 106.50713987217556,-7.9894002210871395 A 167.2180612936723 167.2180612936723 0 0 0 79.78665330728558,-12.18424430561393"/><text text-anchor="middle" pointer-events="none" font-size="8px" fill="#000000" x="65.20432964288638" y="-9.138110041799848" transform="rotate(180 65.20432964288638 -12.138110041799848)" font-family="Helvetica Neue, Helvetica, Arial, sans-serif">ROAD</text></g><g class="relationship" transform="translate(-106.03174351903493 -85.89870189380525) rotate(500.2333341878418)"><path class="b-outline" fill="#A5ABB6" stroke="none" d="M 21.40063509461097,12.933012701892217 L 21.90063509461097,12.06698729810778 A 86.92447718887927 86.92447718887927 0 0 0 48.814903559341346,22.122989623595785 L 48.624531748490504,23.104701686083246 A 87.92447718887927 87.92447718887927 0 0 1 21.40063509461097,12.933012701892217 Z M 77.76008034131519,23.83427857318013 L 77.61908198626517,22.844268742989954 A 86.92447718887927 86.92447718887927 0 0 0 105.00292362654714,14.147933492911475 L 103.63483774719137,11.478038171610038 L 111.46069368947647,11.400715661298218 L 106.82703813235486,17.707793921313392 L 105.45895225299908,15.037898600011955 A 87.92447718887927 87.92447718887927 0 0 1 77.76008034131519,23.83427857318013"/><text text-anchor="middle" pointer-events="none" font-size="8px" fill="#000000" x="63.174382544310134" y="27.185262561171243" transform="rotate(180 63.174382544310134 24.185262561171243)" font-family="Helvetica Neue, Helvetica, Arial, sans-serif">ROAD</text></g><g class="relationship" transform="translate(-208.80857374077672 -0.3695285108990447) rotate(358.8082439800819)"><path class="b-outline" fill="#A5ABB6" stroke="none" d="M 25 0.5 L 89.74987085212962 0.5 L 89.74987085212962 -0.5 L 25 -0.5 Z M 118.86315210212962 0.5 L 183.61302295425924 0.5 L 183.61302295425924 3.5 L 190.61302295425924 0 L 183.61302295425924 -3.5 L 183.61302295425924 -0.5 L 118.86315210212962 -0.5 Z"/><text text-anchor="middle" pointer-events="none" font-size="8px" fill="#000000" x="104.30651147712962" y="3" font-family="Helvetica Neue, Helvetica, Arial, sans-serif">ROAD</text></g><g class="relationship" transform="translate(-106.03174351903493 -85.89870189380525) rotate(500.2333341878418)"><path class="b-outline" fill="#A5ABB6" stroke="none" d="M 25 0.5 L 48.79827005849424 0.5 L 48.79827005849424 -0.5 L 25 -0.5 Z M 77.91155130849424 0.5 L 101.70982136698848 0.5 L 101.70982136698848 3.5 L 108.70982136698848 0 L 101.70982136698848 -3.5 L 101.70982136698848 -0.5 L 77.91155130849424 -0.5 Z"/><text text-anchor="middle" pointer-events="none" font-size="8px" fill="#000000" x="63.35491068349424" y="3" transform="rotate(180 63.35491068349424 0)" font-family="Helvetica Neue, Helvetica, Arial, sans-serif">ROAD</text></g><g class="relationship" transform="translate(-208.80857374077672 -0.3695285108990447) rotate(320.2333341878418)"><path class="b-outline" fill="#A5ABB6" stroke="none" d="M 21.40063509461097,12.933012701892217 L 21.90063509461097,12.06698729810778 A 86.92447718887927 86.92447718887927 0 0 0 48.814903559341346,22.122989623595785 L 48.624531748490504,23.104701686083246 A 87.92447718887927 87.92447718887927 0 0 1 21.40063509461097,12.933012701892217 Z M 77.76008034131519,23.83427857318013 L 77.61908198626517,22.844268742989954 A 86.92447718887927 86.92447718887927 0 0 0 105.00292362654714,14.147933492911475 L 103.63483774719137,11.478038171610038 L 111.46069368947647,11.400715661298218 L 106.82703813235486,17.707793921313392 L 105.45895225299908,15.037898600011955 A 87.92447718887927 87.92447718887927 0 0 1 77.76008034131519,23.83427857318013"/><text text-anchor="middle" pointer-events="none" font-size="8px" fill="#000000" x="63.174382544310134" y="27.185262561171243" font-family="Helvetica Neue, Helvetica, Arial, sans-serif">ROAD</text></g><g class="relationship" transform="translate(6.757809188018896 -4.8539703345572605) rotate(215.69906735416123)"><path class="b-outline" fill="#A5ABB6" stroke="none" d="M 25 0.5 L 51.387098677704316 0.5 L 51.387098677704316 -0.5 L 25 -0.5 Z M 80.50037992770432 0.5 L 106.88747860540863 0.5 L 106.88747860540863 3.5 L 113.88747860540863 0 L 106.88747860540863 -3.5 L 106.88747860540863 -0.5 L 80.50037992770432 -0.5 Z"/><text text-anchor="middle" pointer-events="none" font-size="8px" fill="#000000" x="65.94373930270432" y="3" transform="rotate(180 65.94373930270432 0)" font-family="Helvetica Neue, Helvetica, Arial, sans-serif">ROAD</text></g><g class="relationship" transform="translate(6.757809188018896 -4.8539703345572605) rotate(215.69906735416123)"><path class="b-outline" fill="#A5ABB6" stroke="none" d="M 21.40063509461097,12.933012701892217 L 21.90063509461097,12.06698729810778 A 92.21337924536134 92.21337924536134 0 0 0 51.39421520193899,22.912389083145627 L 51.2140557754945,23.89602650672363 A 93.21337924536134 93.21337924536134 0 0 1 21.40063509461097,12.933012701892217 Z M 80.3557400578347,24.599690782299973 L 80.22326534829713,23.6085043965314 A 92.21337924536134 92.21337924536134 0 0 0 110.20592112912189,14.199234512270683 L 108.83306406356913,11.53178939051806 L 116.65876925747013,11.440475546273008 L 112.03639721652557,17.755828007940845 L 110.6635401509728,15.088382886188223 A 93.21337924536134 93.21337924536134 0 0 1 80.3557400578347,24.599690782299973"/><text text-anchor="middle" pointer-events="none" font-size="8px" fill="#000000" x="65.76929063950215" y="27.89422134809294" transform="rotate(180 65.76929063950215 24.89422134809294)" font-family="Helvetica Neue, Helvetica, Arial, sans-serif">ROAD</text></g><g class="relationship" transform="translate(-100.38933589718562 81.31520926022539) rotate(321.1932895855608)"><path class="b-outline" fill="#A5ABB6" stroke="none" d="M 24.018736134675446,-6.953439040707552 L 24.277555179777966,-5.987513214418485 A 166.2180612936723 166.2180612936723 0 0 1 50.7251518371483,-10.822995464930614 L 50.62544664797413,-11.818012487524584 A 167.2180612936723 167.2180612936723 0 0 0 24.018736134675446,-6.953439040707552 Z M 79.78665330728558,-12.18424430561393 L 79.71196820372637,-11.187037137916889 A 166.2180612936723 166.2180612936723 0 0 1 106.27266050740936,-7.017279123950145 L 105.56922241311072,-4.100915832539158 L 113.19474786975142,-5.861984119155187 L 107.21057796647419,-10.905763512498126 L 106.50713987217556,-7.9894002210871395 A 167.2180612936723 167.2180612936723 0 0 0 79.78665330728558,-12.18424430561393"/><text text-anchor="middle" pointer-events="none" font-size="8px" fill="#000000" x="65.20432964288638" y="-9.138110041799848" font-family="Helvetica Neue, Helvetica, Arial, sans-serif">ROAD</text></g></g><g class="layer nodes"><g class="node" aria-label="graph-node2" transform="translate(-106.03174351903493,-85.89870189380525)"><circle class="b-outline" cx="0" cy="0" r="25" fill="#4C8EDA" stroke="#2870c2" stroke-width="2px"/><text class="caption" text-anchor="middle" pointer-events="none" x="0" y="5" font-size="10px" fill="#FFFFFF" font-family="Helvetica Neue, Helvetica, Arial, sans-serif"> A</text></g><g class="node" aria-label="graph-node15" transform="translate(-100.38933589718562,81.31520926022539)"><circle class="b-outline" cx="0" cy="0" r="25" fill="#4C8EDA" stroke="#2870c2" stroke-width="2px"/><text class="caption" text-anchor="middle" pointer-events="none" x="0" y="5" font-size="10px" fill="#FFFFFF" font-family="Helvetica Neue, Helvetica, Arial, sans-serif"> F</text></g><g class="node" aria-label="graph-node14" transform="translate(6.757809188018896,-4.8539703345572605)"><circle class="b-outline" cx="0" cy="0" r="25" fill="#4C8EDA" stroke="#2870c2" stroke-width="2px"/><text class="caption" text-anchor="middle" pointer-events="none" x="0" y="5" font-size="10px" fill="#FFFFFF" font-family="Helvetica Neue, Helvetica, Arial, sans-serif"> E</text></g><g class="node" aria-label="graph-node10" transform="translate(-208.80857374077672,-0.3695285108990447)"><circle class="b-outline" cx="0" cy="0" r="25" fill="#4C8EDA" stroke="#2870c2" stroke-width="2px"/><text class="caption" text-anchor="middle" pointer-events="none" x="0" y="5" font-size="10px" fill="#FFFFFF" font-family="Helvetica Neue, Helvetica, Arial, sans-serif"> D</text></g></g></svg>