<svg xmlns="http://www.w3.org/2000/svg" width="388.2001037597656" height="236.22598266601562" viewBox="-162.3543701171875 -114.83267974853516 388.2001037597656 236.22598266601562"><title>Neo4j Graph Visualization</title><desc>Created using Neo4j (http://www.neo4j.com/)</desc><g class="layer relationships"><g class="relationship" transform="translate(-18.008857382864633 -4.710228647059864) rotate(399.91613077497857)"><path class="b-outline" fill="#A5ABB6" stroke="none" d="M 21.40063509461097,12.933012701892217 L 21.90063509461097,12.06698729810778 A 104.8925523959887 104.8925523959887 0 0 0 57.59916594177078,24.774272613677397 L 57.43950021748171,25.761443752076033 A 105.8925523959887 105.8925523959887 0 0 1 21.40063509461097,12.933012701892217 Z M 86.59077846372695,26.4096919181233 L 86.47515307842757,25.416399025631677 A 104.8925523959887 104.8925523959887 0 0 0 122.70326967320975,14.308574183126346 L 121.32024416922401,11.64638702679699 L 129.1455439553092,11.525212533214505 L 124.54730367852407,17.858157058232155 L 123.16427817453834,15.1959699019028 A 105.8925523959887 105.8925523959887 0 0 1 86.59077846372695,26.4096919181233"/><text text-anchor="middle" pointer-events="none" font-size="8px" fill="#000000" x="72.0038358981781" y="29.593875937715538" font-family="Helvetica Neue, Helvetica, Arial, sans-serif">ROAD</text></g><g class="relationship" transform="translate(-18.008857382864633 -4.710228647059864) rotate(500.62517246010253)"><path class="b-outline" fill="#A5ABB6" stroke="none" d="M 21.40063509461097,12.933012701892217 L 21.90063509461097,12.06698729810778 A 102.74036441183507 102.74036441183507 0 0 0 56.544062486444226,24.460833308251836 L 56.38125641786698,25.447491396970733 A 103.74036441183507 103.74036441183507 0 0 1 21.40063509461097,12.933012701892217 Z M 85.5312967458463,26.104540532517063 L 85.4131124738435,25.111548851861485 A 102.74036441183507 102.74036441183507 0 0 0 120.5797926718623,14.2912399733378 L 119.19837917458203,11.628215987427813 L 127.0237508885323,11.51177914400219 L 122.42167733490264,17.841938621217786 L 121.04026383762238,15.178914635307796 A 103.74036441183507 103.74036441183507 0 0 1 85.5312967458463,26.104540532517063"/><text text-anchor="middle" pointer-events="none" font-size="8px" fill="#000000" x="70.94434481447097" y="29.305369831387736" transform="rotate(180 70.94434481447097 26.305369831387736)" font-family="Helvetica Neue, Helvetica, Arial, sans-serif">ROAD</text></g><g class="relationship" transform="translate(-18.008857382864633 -4.710228647059864) rotate(500.62517246010253)"><path class="b-outline" fill="#A5ABB6" stroke="none" d="M 25 0.5 L 56.55116809389112 0.5 L 56.55116809389112 -0.5 L 25 -0.5 Z M 85.66444934389112 0.5 L 117.21561743778224 0.5 L 117.21561743778224 3.5 L 124.21561743778224 0 L 117.21561743778224 -3.5 L 117.21561743778224 -0.5 L 85.66444934389112 -0.5 Z"/><text text-anchor="middle" pointer-events="none" font-size="8px" fill="#000000" x="71.10780871889112" y="3" transform="rotate(180 71.10780871889112 0)" font-family="Helvetica Neue, Helvetica, Arial, sans-serif">ROAD</text></g><g class="relationship" transform="translate(-18.008857382864633 -4.710228647059864) rotate(324.75644194172685)"><path class="b-outline" fill="#A5ABB6" stroke="none" d="M 21.40063509461097,-12.933012701892217 L 21.90063509461097,-12.06698729810778 A 93.09281987981147 93.09281987981147 0 0 1 51.82367078798129,-23.042837153117617 L 51.645103050233125,-24.02676477394931 A 94.09281987981147 94.09281987981147 0 0 0 21.40063509461097,-12.933012701892217 Z M 80.78766168905624,-24.726291473879385 L 80.65650804024114,-23.73492942074114 A 93.09281987981147 93.09281987981147 0 0 1 111.07169855531188,-14.207414997850734 L 109.69808068953579,-11.540361575284791 L 117.52375951892843,-11.446815548134158 L 112.90318904301334,-17.763486227938657 L 111.52957117723724,-15.096432805372714 A 94.09281987981147 94.09281987981147 0 0 0 80.78766168905624,-24.726291473879385"/><text text-anchor="middle" pointer-events="none" font-size="8px" fill="#000000" x="66.2011261310641" y="-22.012109049541706" font-family="Helvetica Neue, Helvetica, Arial, sans-serif">ROAD</text></g><g class="relationship" transform="translate(-18.008857382864633 -4.710228647059864) rotate(215.97801628448337)"><path class="b-outline" fill="#A5ABB6" stroke="none" d="M 25 0.5 L 50.986703913843854 0.5 L 50.986703913843854 -0.5 L 25 -0.5 Z M 80.09998516384385 0.5 L 106.08668907768771 0.5 L 106.08668907768771 3.5 L 113.08668907768771 0 L 106.08668907768771 -3.5 L 106.08668907768771 -0.5 L 80.09998516384385 -0.5 Z"/><text text-anchor="middle" pointer-events="none" font-size="8px" fill="#000000" x="65.54334453884385" y="3" transform="rotate(180 65.54334453884385 0)" font-family="Helvetica Neue, Helvetica, Arial, sans-serif">ROAD</text></g><g class="relationship" transform="translate(-129.75446949652584 -85.83267852242525) rotate(360.1216788163492)"><path class="b-outline" fill="#A5ABB6" stroke="none" d="M 25 0.5 L 94.88345786626383 0.5 L 94.88345786626383 -0.5 L 25 -0.5 Z M 123.99673911626383 0.5 L 193.88019698252765 0.5 L 193.88019698252765 3.5 L 200.88019698252765 0 L 193.88019698252765 -3.5 L 193.88019698252765 -0.5 L 123.99673911626383 -0.5 Z"/><text text-anchor="middle" pointer-events="none" font-size="8px" fill="#000000" x="109.44009849126383" y="3" font-family="Helvetica Neue, Helvetica, Arial, sans-serif">ROAD</text></g><g class="relationship" transform="translate(96.12521811679485 -85.35297801779281) rotate(504.75644194172685)"><path class="b-outline" fill="#A5ABB6" stroke="none" d="M 25 0.5 L 51.81796172848897 0.5 L 51.81796172848897 -0.5 L 25 -0.5 Z M 80.93124297848897 0.5 L 107.74920470697793 0.5 L 107.74920470697793 3.5 L 114.74920470697793 0 L 107.74920470697793 -3.5 L 107.74920470697793 -0.5 L 80.93124297848897 -0.5 Z"/><text text-anchor="middle" pointer-events="none" font-size="8px" fill="#000000" x="66.37460235348897" y="3" transform="rotate(180 66.37460235348897 0)" font-family="Helvetica Neue, Helvetica, Arial, sans-serif">ROAD</text></g><g class="relationship" transform="translate(96.12521811679485 -85.35297801779281) rotate(504.75644194172685)"><path class="b-outline" fill="#A5ABB6" stroke="none" d="M 21.40063509461097,-12.933012701892217 L 21.90063509461097,-12.06698729810778 A 93.09281987981147 93.09281987981147 0 0 1 51.82367078798129,-23.042837153117617 L 51.645103050233125,-24.02676477394931 A 94.09281987981147 94.09281987981147 0 0 0 21.40063509461097,-12.933012701892217 Z M 80.78766168905624,-24.726291473879385 L 80.65650804024114,-23.73492942074114 A 93.09281987981147 93.09281987981147 0 0 1 111.07169855531188,-14.207414997850734 L 109.69808068953579,-11.540361575284791 L 117.52375951892843,-11.446815548134158 L 112.90318904301334,-17.763486227938657 L 111.52957117723724,-15.096432805372714 A 94.09281987981147 94.09281987981147 0 0 0 80.78766168905624,-24.726291473879385"/><text text-anchor="middle" pointer-events="none" font-size="8px" fill="#000000" x="66.2011261310641" y="-22.012109049541706" transform="rotate(180 66.2011261310641 -25.012109049541706)" font-family="Helvetica Neue, Helvetica, Arial, sans-serif">ROAD</text></g><g class="relationship" transform="translate(-133.35437439717333 89.95080975861373) rotate(360.6047159116011)"><path class="b-outline" fill="#A5ABB6" stroke="none" d="M 25 0.5 L 97.65661472080795 0.5 L 97.65661472080795 -0.5 L 25 -0.5 Z M 126.76989597080795 0.5 L 199.4265106916159 0.5 L 199.4265106916159 3.5 L 206.4265106916159 0 L 199.4265106916159 -3.5 L 199.4265106916159 -0.5 L 126.76989597080795 -0.5 Z"/><text text-anchor="middle" pointer-events="none" font-size="8px" fill="#000000" x="112.21325534580795" y="3" font-family="Helvetica Neue, Helvetica, Arial, sans-serif">ROAD</text></g><g class="relationship" transform="translate(-133.35437439717333 89.95080975861373) rotate(320.62517246010253)"><path class="b-outline" fill="#A5ABB6" stroke="none" d="M 21.40063509461097,12.933012701892217 L 21.90063509461097,12.06698729810778 A 102.74036441183507 102.74036441183507 0 0 0 56.544062486444226,24.460833308251836 L 56.38125641786698,25.447491396970733 A 103.74036441183507 103.74036441183507 0 0 1 21.40063509461097,12.933012701892217 Z M 85.5312967458463,26.104540532517063 L 85.4131124738435,25.111548851861485 A 102.74036441183507 102.74036441183507 0 0 0 120.5797926718623,14.2912399733378 L 119.19837917458203,11.628215987427813 L 127.0237508885323,11.51177914400219 L 122.42167733490264,17.841938621217786 L 121.04026383762238,15.178914635307796 A 103.74036441183507 103.74036441183507 0 0 1 85.5312967458463,26.104540532517063"/><text text-anchor="middle" pointer-events="none" font-size="8px" fill="#000000" x="70.94434481447097" y="29.305369831387736" font-family="Helvetica Neue, Helvetica, Arial, sans-serif">ROAD</text></g><g class="relationship" transform="translate(98.05924677850864 92.39330546067175) rotate(315.86086685679936)"><path class="b-outline" fill="#A5ABB6" stroke="none" d="M 24.018736134675446,-6.953439040707552 L 24.277555179777966,-5.987513214418485 A 166.5234309142648 166.5234309142648 0 0 1 50.80242139367058,-10.834750492643337 L 50.70288843862916,-11.829784758817482 A 167.5234309142648 167.5234309142648 0 0 0 24.018736134675446,-6.953439040707552 Z M 79.86407603471535,-12.195623748493858 L 79.78953669767836,-11.198405674432792 A 166.5234309142648 166.5234309142648 0 0 1 106.42765687150785,-7.01811973912494 L 105.72414026544999,-4.101775386171942 L 113.34971312940782,-5.862638383815451 L 107.36567901291832,-10.906578876395605 L 106.66216240686046,-7.990234523442607 A 167.5234309142648 167.5234309142648 0 0 0 79.86407603471535,-12.195623748493858"/><text text-anchor="middle" pointer-events="none" font-size="8px" fill="#000000" x="65.28177838030597" y="-9.148519397848247" font-family="Helvetica Neue, Helvetica, Arial, sans-serif">ROAD</text></g><g class="relationship" transform="translate(98.05924677850864 92.39330546067175) rotate(219.91613077497857)"><path class="b-outline" fill="#A5ABB6" stroke="none" d="M 25 0.5 L 57.60857783736023 0.5 L 57.60857783736023 -0.5 L 25 -0.5 Z M 86.72185908736023 0.5 L 119.33043692472046 0.5 L 119.33043692472046 3.5 L 126.33043692472046 0 L 119.33043692472046 -3.5 L 119.33043692472046 -0.5 L 86.72185908736023 -0.5 Z"/><text text-anchor="middle" pointer-events="none" font-size="8px" fill="#000000" x="72.16521846236023" y="3" transform="rotate(180 72.16521846236023 0)" font-family="Helvetica Neue, Helvetica, Arial, sans-serif">ROAD</text></g><g class="relationship" transform="translate(98.05924677850864 92.39330546067175) rotate(219.91613077497857)"><path class="b-outline" fill="#A5ABB6" stroke="none" d="M 21.40063509461097,12.933012701892217 L 21.90063509461097,12.06698729810778 A 104.8925523959887 104.8925523959887 0 0 0 57.59916594177078,24.774272613677397 L 57.43950021748171,25.761443752076033 A 105.8925523959887 105.8925523959887 0 0 1 21.40063509461097,12.933012701892217 Z M 86.59077846372695,26.4096919181233 L 86.47515307842757,25.416399025631677 A 104.8925523959887 104.8925523959887 0 0 0 122.70326967320975,14.308574183126346 L 121.32024416922401,11.64638702679699 L 129.1455439553092,11.525212533214505 L 124.54730367852407,17.858157058232155 L 123.16427817453834,15.1959699019028 A 105.8925523959887 105.8925523959887 0 0 1 86.59077846372695,26.4096919181233"/><text text-anchor="middle" pointer-events="none" font-size="8px" fill="#000000" x="72.0038358981781" y="29.593875937715538" transform="rotate(180 72.0038358981781 26.593875937715538)" font-family="Helvetica Neue, Helvetica, Arial, sans-serif">ROAD</text></g><g class="relationship" transform="translate(196.84573570080133 -3.468382093160713) rotate(495.86086685679936)"><path class="b-outline" fill="#A5ABB6" stroke="none" d="M 24.018736134675446,-6.953439040707552 L 24.277555179777966,-5.987513214418485 A 166.5234309142648 166.5234309142648 0 0 1 50.80242139367058,-10.834750492643337 L 50.70288843862916,-11.829784758817482 A 167.5234309142648 167.5234309142648 0 0 0 24.018736134675446,-6.953439040707552 Z M 79.86407603471535,-12.195623748493858 L 79.78953669767836,-11.198405674432792 A 166.5234309142648 166.5234309142648 0 0 1 106.42765687150785,-7.01811973912494 L 105.72414026544999,-4.101775386171942 L 113.34971312940782,-5.862638383815451 L 107.36567901291832,-10.906578876395605 L 106.66216240686046,-7.990234523442607 A 167.5234309142648 167.5234309142648 0 0 0 79.86407603471535,-12.195623748493858"/><text text-anchor="middle" pointer-events="none" font-size="8px" fill="#000000" x="65.28177838030597" y="-9.148519397848247" transform="rotate(180 65.28177838030597 -12.148519397848247)" font-family="Helvetica Neue, Helvetica, Arial, sans-serif">ROAD</text></g></g><g class="layer nodes"><g class="node" aria-label="graph-node8" transform="translate(-129.75446949652584,-85.83267852242525)"><circle class="b-outline" cx="0" cy="0" r="25" fill="#4C8EDA" stroke="#2870c2" stroke-width="2px"/><text class="caption" text-anchor="middle" pointer-events="none" x="0" y="5" font-size="10px" fill="#FFFFFF" font-family="Helvetica Neue, Helvetica, Arial, sans-serif"> B</text></g><g class="node" aria-label="graph-node9" transform="translate(96.12521811679485,-85.35297801779281)"><circle class="b-outline" cx="0" cy="0" r="25" fill="#4C8EDA" stroke="#2870c2" stroke-width="2px"/><text class="caption" text-anchor="middle" pointer-events="none" x="0" y="5" font-size="10px" fill="#FFFFFF" font-family="Helvetica Neue, Helvetica, Arial, sans-serif"> C</text></g><g class="node" aria-label="graph-node2" transform="translate(-18.008857382864633,-4.710228647059864)"><circle class="b-outline" cx="0" cy="0" r="25" fill="#4C8EDA" stroke="#2870c2" stroke-width="2px"/><text class="caption" text-anchor="middle" pointer-events="none" x="0" y="5" font-size="10px" fill="#FFFFFF" font-family="Helvetica Neue, Helvetica, Arial, sans-serif"> A</text></g><g class="node" aria-label="graph-node10" transform="translate(-133.35437439717333,89.95080975861373)"><circle class="b-outline" cx="0" cy="0" r="25" fill="#4C8EDA" stroke="#2870c2" stroke-width="2px"/><text class="caption" text-anchor="middle" pointer-events="none" x="0" y="5" font-size="10px" fill="#FFFFFF" font-family="Helvetica Neue, Helvetica, Arial, sans-serif"> D</text></g><g class="node" aria-label="graph-node14" transform="translate(98.05924677850864,92.39330546067175)"><circle class="b-outline" cx="0" cy="0" r="25" fill="#4C8EDA" stroke="#2870c2" stroke-width="2px"/><text class="caption" text-anchor="middle" pointer-events="none" x="0" y="5" font-size="10px" fill="#FFFFFF" font-family="Helvetica Neue, Helvetica, Arial, sans-serif"> E</text></g><g class="node" aria-label="graph-node15" transform="translate(196.84573570080133,-3.468382093160713)"><circle class="b-outline" cx="0" cy="0" r="25" fill="#4C8EDA" stroke="#2870c2" stroke-width="2px"/><text class="caption" text-anchor="middle" pointer-events="none" x="0" y="5" font-size="10px" fill="#FFFFFF" font-family="Helvetica Neue, Helvetica, Arial, sans-serif"> F</text></g></g></svg>