<svg xmlns="http://www.w3.org/2000/svg" width="370.5751647949219" height="239.6957244873047" viewBox="-348.0706787109375 -97.63059997558594 370.5751647949219 239.6957244873047"><title>Neo4j Graph Visualization</title><desc>Created using Neo4j (http://www.neo4j.com/)</desc><g class="layer relationships"><g class="relationship" transform="translate(-319.07068362543356 -62.57408033834318) rotate(358.2586366025955)"><path class="b-outline" fill="#A5ABB6" stroke="none" d="M 25 0.5 L 81.59699399689492 0.5 L 81.59699399689492 -0.5 L 25 -0.5 Z M 110.71027524689492 0.5 L 167.30726924378985 0.5 L 167.30726924378985 3.5 L 174.30726924378985 0 L 167.30726924378985 -3.5 L 167.30726924378985 -0.5 L 110.71027524689492 -0.5 Z"/><text text-anchor="middle" pointer-events="none" font-size="8px" fill="#000000" x="96.15363462189492" y="3" font-family="Helvetica Neue, Helvetica, Arial, sans-serif">ROAD</text></g><g class="relationship" transform="translate(-119.85545791271619 -68.63059894622421) rotate(497.6906172973519)"><path class="b-outline" fill="#A5ABB6" stroke="none" d="M 21.40063509461097,12.933012701892217 L 21.90063509461097,12.06698729810778 A 98.37286451451739 98.37286451451739 0 0 0 54.40512865969601,23.82168397867528 L 54.23554999819722,24.807200633818297 A 99.37286451451739 99.37286451451739 0 0 1 21.40063509461097,12.933012701892217 Z M 83.3826360373402,25.48284269129485 L 83.25890438538934,24.4905269762598 A 98.37286451451739 98.37286451451739 0 0 0 116.27315050929694,14.2545830117371 L 114.89514601444688,11.589793411754956 L 122.72066032506363,11.483370790417293 L 118.1104898357637,17.807635811713293 L 116.73248534091364,15.14284621173115 A 99.37286451451739 99.37286451451739 0 0 1 83.3826360373402,25.48284269129485"/><text text-anchor="middle" pointer-events="none" font-size="8px" fill="#000000" x="68.79576711248093" y="28.719899001340423" transform="rotate(180 68.79576711248093 25.719899001340423)" font-family="Helvetica Neue, Helvetica, Arial, sans-serif">ROAD</text></g><g class="relationship" transform="translate(-227.0321772238059 28.924799807035654) rotate(398.11194887438376)"><path class="b-outline" fill="#A5ABB6" stroke="none" d="M 21.40063509461097,12.933012701892217 L 21.90063509461097,12.06698729810778 A 89.5977863718006 89.5977863718006 0 0 0 50.11787879295525,22.523083390199503 L 49.93281116841877,23.505809178173152 A 90.5977863718006 90.5977863718006 0 0 1 21.40063509461097,12.933012701892217 Z M 79.07166047502469,24.22206293772416 L 78.93509938793873,23.23143128595146 A 89.5977863718006 89.5977863718006 0 0 0 107.6319915499398,14.174325365113022 L 106.26145110713557,11.505689216321283 L 114.08723263758789,11.421170356701799 L 109.45937880701209,17.732506896835343 L 108.08883836420786,15.063870748043604 A 90.5977863718006 90.5977863718006 0 0 1 79.07166047502469,24.22206293772416"/><text text-anchor="middle" pointer-events="none" font-size="8px" fill="#000000" x="64.48552900374726" y="27.543607815142977" font-family="Helvetica Neue, Helvetica, Arial, sans-serif">ROAD</text></g><g class="relationship" transform="translate(-119.77012281220348 113.06512161645938) rotate(321.68098824372817)"><path class="b-outline" fill="#A5ABB6" stroke="none" d="M 24.018736134675446,-6.953439040707552 L 24.277555179777966,-5.987513214418485 A 179.7764267445199 179.7764267445199 0 0 1 54.15982574453673,-11.3408175639928 L 54.06722577000916,-12.336520955931121 A 180.7764267445199 180.7764267445199 0 0 0 24.018736134675446,-6.953439040707552 Z M 83.22744466254491,-12.68606961831182 L 83.15873920904924,-11.688432629893697 A 179.7764267445199 179.7764267445199 0 0 1 113.16074685733037,-7.052971634792918 L 112.4539751852727,-4.137414431859522 L 120.08150894285124,-5.8897639338139225 L 114.1031090867406,-10.940381238704113 L 113.39633741468293,-8.024824035770717 A 180.7764267445199 180.7764267445199 0 0 0 83.22744466254491,-12.68606961831182"/><text text-anchor="middle" pointer-events="none" font-size="8px" fill="#000000" x="68.64626835354507" y="-9.600295629964677" font-family="Helvetica Neue, Helvetica, Arial, sans-serif">ROAD</text></g><g class="relationship" transform="translate(-119.85545791271619 -68.63059894622421) rotate(497.6906172973519)"><path class="b-outline" fill="#A5ABB6" stroke="none" d="M 25 0.5 L 54.40697953745746 0.5 L 54.40697953745746 -0.5 L 25 -0.5 Z M 83.52026078745746 0.5 L 112.92724032491492 0.5 L 112.92724032491492 3.5 L 119.92724032491492 0 L 112.92724032491492 -3.5 L 112.92724032491492 -0.5 L 83.52026078745746 -0.5 Z"/><text text-anchor="middle" pointer-events="none" font-size="8px" fill="#000000" x="68.96362016245746" y="3" transform="rotate(180 68.96362016245746 0)" font-family="Helvetica Neue, Helvetica, Arial, sans-serif">ROAD</text></g><g class="relationship" transform="translate(-227.0321772238059 28.924799807035654) rotate(317.6906172973519)"><path class="b-outline" fill="#A5ABB6" stroke="none" d="M 21.40063509461097,12.933012701892217 L 21.90063509461097,12.06698729810778 A 98.37286451451739 98.37286451451739 0 0 0 54.40512865969601,23.82168397867528 L 54.23554999819722,24.807200633818297 A 99.37286451451739 99.37286451451739 0 0 1 21.40063509461097,12.933012701892217 Z M 83.3826360373402,25.48284269129485 L 83.25890438538934,24.4905269762598 A 98.37286451451739 98.37286451451739 0 0 0 116.27315050929694,14.2545830117371 L 114.89514601444688,11.589793411754956 L 122.72066032506363,11.483370790417293 L 118.1104898357637,17.807635811713293 L 116.73248534091364,15.14284621173115 A 99.37286451451739 99.37286451451739 0 0 1 83.3826360373402,25.48284269129485"/><text text-anchor="middle" pointer-events="none" font-size="8px" fill="#000000" x="68.79576711248093" y="28.719899001340423" font-family="Helvetica Neue, Helvetica, Arial, sans-serif">ROAD</text></g><g class="relationship" transform="translate(-227.0321772238059 28.924799807035654) rotate(224.83154267101042)"><path class="b-outline" fill="#A5ABB6" stroke="none" d="M 25 0.5 L 46.83390515884446 0.5 L 46.83390515884446 -0.5 L 25 -0.5 Z M 75.94718640884446 0.5 L 97.78109156768892 0.5 L 97.78109156768892 3.5 L 104.78109156768892 0 L 97.78109156768892 -3.5 L 97.78109156768892 -0.5 L 75.94718640884446 -0.5 Z"/><text text-anchor="middle" pointer-events="none" font-size="8px" fill="#000000" x="61.39054578384446" y="3" transform="rotate(180 61.39054578384446 0)" font-family="Helvetica Neue, Helvetica, Arial, sans-serif">ROAD</text></g><g class="relationship" transform="translate(-119.77012281220348 113.06512161645938) rotate(218.11194887438376)"><path class="b-outline" fill="#A5ABB6" stroke="none" d="M 25 0.5 L 50.10629298042616 0.5 L 50.10629298042616 -0.5 L 25 -0.5 Z M 79.21957423042616 0.5 L 104.32586721085232 0.5 L 104.32586721085232 3.5 L 111.32586721085232 0 L 104.32586721085232 -3.5 L 104.32586721085232 -0.5 L 79.21957423042616 -0.5 Z"/><text text-anchor="middle" pointer-events="none" font-size="8px" fill="#000000" x="64.66293360542616" y="3" transform="rotate(180 64.66293360542616 0)" font-family="Helvetica Neue, Helvetica, Arial, sans-serif">ROAD</text></g><g class="relationship" transform="translate(-119.77012281220348 113.06512161645938) rotate(218.11194887438376)"><path class="b-outline" fill="#A5ABB6" stroke="none" d="M 21.40063509461097,12.933012701892217 L 21.90063509461097,12.06698729810778 A 89.5977863718006 89.5977863718006 0 0 0 50.11787879295525,22.523083390199503 L 49.93281116841877,23.505809178173152 A 90.5977863718006 90.5977863718006 0 0 1 21.40063509461097,12.933012701892217 Z M 79.07166047502469,24.22206293772416 L 78.93509938793873,23.23143128595146 A 89.5977863718006 89.5977863718006 0 0 0 107.6319915499398,14.174325365113022 L 106.26145110713557,11.505689216321283 L 114.08723263758789,11.421170356701799 L 109.45937880701209,17.732506896835343 L 108.08883836420786,15.063870748043604 A 90.5977863718006 90.5977863718006 0 0 1 79.07166047502469,24.22206293772416"/><text text-anchor="middle" pointer-events="none" font-size="8px" fill="#000000" x="64.48552900374726" y="27.543607815142977" transform="rotate(180 64.48552900374726 24.543607815142977)" font-family="Helvetica Neue, Helvetica, Arial, sans-serif">ROAD</text></g><g class="relationship" transform="translate(-6.495520124348559 23.545185313633596) rotate(501.68098824372817)"><path class="b-outline" fill="#A5ABB6" stroke="none" d="M 24.018736134675446,-6.953439040707552 L 24.277555179777966,-5.987513214418485 A 179.7764267445199 179.7764267445199 0 0 1 54.15982574453673,-11.3408175639928 L 54.06722577000916,-12.336520955931121 A 180.7764267445199 180.7764267445199 0 0 0 24.018736134675446,-6.953439040707552 Z M 83.22744466254491,-12.68606961831182 L 83.15873920904924,-11.688432629893697 A 179.7764267445199 179.7764267445199 0 0 1 113.16074685733037,-7.052971634792918 L 112.4539751852727,-4.137414431859522 L 120.08150894285124,-5.8897639338139225 L 114.1031090867406,-10.940381238704113 L 113.39633741468293,-8.024824035770717 A 180.7764267445199 180.7764267445199 0 0 0 83.22744466254491,-12.68606961831182"/><text text-anchor="middle" pointer-events="none" font-size="8px" fill="#000000" x="68.64626835354507" y="-9.600295629964677" transform="rotate(180 68.64626835354507 -12.600295629964677)" font-family="Helvetica Neue, Helvetica, Arial, sans-serif">ROAD</text></g></g><g class="layer nodes"><g class="node" aria-label="graph-node8" transform="translate(-319.07068362543356,-62.57408033834318)"><circle class="b-outline" cx="0" cy="0" r="25" fill="#4C8EDA" stroke="#2870c2" stroke-width="2px"/><text class="caption" text-anchor="middle" pointer-events="none" x="0" y="5" font-size="10px" fill="#FFFFFF" font-family="Helvetica Neue, Helvetica, Arial, sans-serif"> B</text></g><g class="node" aria-label="graph-node15" transform="translate(-6.495520124348559,23.545185313633596)"><circle class="b-outline" cx="0" cy="0" r="25" fill="#4C8EDA" stroke="#2870c2" stroke-width="2px"/><text class="caption" text-anchor="middle" pointer-events="none" x="0" y="5" font-size="10px" fill="#FFFFFF" font-family="Helvetica Neue, Helvetica, Arial, sans-serif"> F</text></g><g class="node" aria-label="graph-node9" transform="translate(-119.85545791271619,-68.63059894622421)"><circle class="b-outline" cx="0" cy="0" r="25" fill="#4C8EDA" stroke="#2870c2" stroke-width="2px"/><text class="caption" text-anchor="middle" pointer-events="none" x="0" y="5" font-size="10px" fill="#FFFFFF" font-family="Helvetica Neue, Helvetica, Arial, sans-serif"> C</text></g><g class="node" aria-label="graph-node2" transform="translate(-227.0321772238059,28.924799807035654)"><circle class="b-outline" cx="0" cy="0" r="25" fill="#4C8EDA" stroke="#2870c2" stroke-width="2px"/><text class="caption" text-anchor="middle" pointer-events="none" x="0" y="5" font-size="10px" fill="#FFFFFF" font-family="Helvetica Neue, Helvetica, Arial, sans-serif"> A</text></g><g class="node" aria-label="graph-node14" transform="translate(-119.77012281220348,113.06512161645938)"><circle class="b-outline" cx="0" cy="0" r="25" fill="#4C8EDA" stroke="#2870c2" stroke-width="2px"/><text class="caption" text-anchor="middle" pointer-events="none" x="0" y="5" font-size="10px" fill="#FFFFFF" font-family="Helvetica Neue, Helvetica, Arial, sans-serif"> E</text></g></g></svg>